#define calchart_width 64
#define calchart_height 64
static unsigned char calchart_bits[] = {
  0x00, 0x00, 0x00, 0x00, 0x00, 0x00, 0x00, 0x00, 0x00, 0x00, 0x00, 0x00,
  0x00, 0x00, 0x00, 0x00, 0x00, 0x00, 0x00, 0x01, 0x00, 0x00, 0x00, 0x00,
  0x00, 0x00, 0xc0, 0x02, 0x00, 0x00, 0x00, 0x00, 0x00, 0x00, 0x60, 0x02,
  0x00, 0x00, 0x00, 0x00, 0x00, 0x00, 0x20, 0x04, 0x00, 0x00, 0x00, 0x00,
  0x00, 0x00, 0x20, 0x04, 0x00, 0x00, 0x00, 0x00, 0x00, 0x00, 0x40, 0x04,
  0x00, 0x00, 0x00, 0x00, 0x00, 0x00, 0x40, 0x02, 0x00, 0x00, 0x00, 0x00,
  0x00, 0x00, 0xfc, 0xfe, 0xff, 0x7f, 0x00, 0x00, 0x00, 0x00, 0x86, 0x01,
  0x00, 0x80, 0x00, 0x00, 0x00, 0x00, 0x03, 0x01, 0x00, 0x00, 0x01, 0x00,
  0x00, 0xc0, 0x80, 0x03, 0x00, 0x00, 0x02, 0x00, 0x00, 0x60, 0xe0, 0x03,
  0x00, 0x00, 0x04, 0x00, 0x00, 0x10, 0xf8, 0x03, 0x00, 0x00, 0x08, 0x00,
  0x00, 0x08, 0xfe, 0x02, 0x00, 0x00, 0x30, 0x00, 0x00, 0xff, 0x7f, 0x01,
  0x00, 0x00, 0x20, 0x00, 0x00, 0xff, 0xff, 0x00, 0x00, 0x00, 0xc0, 0x00,
  0x00, 0x56, 0xd5, 0xff, 0xff, 0x0f, 0x80, 0x01, 0x00, 0x3c, 0xc0, 0x07,
  0x00, 0x10, 0x00, 0x01, 0x00, 0xa6, 0xf0, 0x0c, 0x00, 0x60, 0x00, 0x01,
  0x00, 0x94, 0x01, 0xf0, 0x00, 0xc0, 0x00, 0x01, 0x00, 0x26, 0x10, 0xc0,
  0x00, 0x80, 0x00, 0x01, 0x00, 0x04, 0xf0, 0x30, 0x00, 0x00, 0x01, 0x01,
  0x00, 0x06, 0x00, 0x0f, 0x00, 0x00, 0x01, 0x01, 0x00, 0x06, 0xff, 0x01,
  0x00, 0x00, 0x01, 0x01, 0x00, 0x02, 0x04, 0x00, 0x00, 0x00, 0xff, 0x01,
  0x00, 0x02, 0x04, 0xc0, 0x87, 0x31, 0x00, 0x00, 0x00, 0x02, 0x04, 0x60,
  0xcc, 0x21, 0x00, 0x00, 0x00, 0x02, 0x04, 0x20, 0x60, 0x33, 0x00, 0x00,
  0x00, 0x12, 0x0c, 0x20, 0xe0, 0x23, 0x00, 0x00, 0x00, 0x13, 0x09, 0x40,
  0xb7, 0xb6, 0x02, 0x00, 0x00, 0x11, 0x19, 0x80, 0x39, 0xe4, 0x03, 0x00,
  0x80, 0x11, 0x11, 0x00, 0x00, 0x00, 0x00, 0x00, 0x80, 0x18, 0x21, 0x00,
  0x00, 0x00, 0x00, 0x00, 0x80, 0x08, 0x21, 0x00, 0x00, 0x00, 0x00, 0x00,
  0x80, 0x18, 0x41, 0x00, 0x7e, 0x18, 0x23, 0x1f, 0xc0, 0x09, 0xc1, 0x00,
  0x46, 0x1c, 0x27, 0x31, 0x20, 0x0a, 0x82, 0x00, 0x3e, 0x34, 0x27, 0x11,
  0x70, 0x1c, 0x02, 0x01, 0x46, 0x7e, 0x2b, 0x31, 0x10, 0x0c, 0x83, 0x01,
  0x6e, 0x6a, 0x3b, 0x1b, 0x10, 0x14, 0x81, 0x02, 0x3e, 0xc2, 0x23, 0x0f,
  0x30, 0x0a, 0xc1, 0x04, 0x00, 0x00, 0xfe, 0x00, 0xc0, 0x15, 0xc1, 0x04,
  0x00, 0x00, 0x01, 0x01, 0x80, 0x08, 0x42, 0x04, 0x00, 0x00, 0x01, 0x01,
  0x80, 0x08, 0x46, 0x04, 0x00, 0x00, 0x01, 0x01, 0x80, 0x48, 0x44, 0x04,
  0x00, 0x00, 0x01, 0x01, 0x80, 0x51, 0x43, 0x04, 0x00, 0x80, 0x01, 0x01,
  0x00, 0xe1, 0xc9, 0x04, 0x00, 0x40, 0x00, 0x01, 0x00, 0x01, 0x94, 0xf8,
  0xff, 0x7f, 0x00, 0x01, 0x00, 0x02, 0xa8, 0x07, 0x00, 0x00, 0x80, 0x01,
  0x00, 0x02, 0x50, 0x03, 0x00, 0x00, 0xc0, 0x00, 0x00, 0x02, 0xa0, 0x01,
  0x00, 0x00, 0x60, 0x00, 0x00, 0x0c, 0xc8, 0x03, 0x00, 0x00, 0x30, 0x00,
  0x00, 0x18, 0x68, 0x05, 0x00, 0x00, 0x10, 0x00, 0x00, 0x10, 0x30, 0x0a,
  0x00, 0x00, 0x08, 0x00, 0x00, 0x10, 0x10, 0x1c, 0x00, 0x00, 0x04, 0x00,
  0x00, 0x10, 0x10, 0x30, 0x00, 0x00, 0x02, 0x00, 0x00, 0x10, 0x50, 0x25,
  0x00, 0x00, 0x03, 0x00, 0x00, 0x20, 0x00, 0xf8, 0xff, 0xff, 0x00, 0x00,
  0x00, 0xe0, 0xff, 0x87, 0x01, 0x00, 0x00, 0x00, 0x00, 0x00, 0x00, 0x00,
  0x02, 0x00, 0x00, 0x00, 0x00, 0x00, 0x00, 0x00, 0x00, 0x00, 0x00, 0x00,
  0x00, 0x00, 0x00, 0x00, 0x00, 0x00, 0x00, 0x00, };
