/* XPM */
static char * calchart_xpm[] = {
"64 64 5 1",
" 	c #FFFFFFFFFFFF",
".	c #000000000000",
"X	c #FFFFFFFF0000",
"o	c #ADADADAD0000",
"O	c #51515151FBFB",
"                                                                ",
"                                                                ",
"                        .                                       ",
"                      .. .                                      ",
"                     ..  .                                      ",
"                     .    .                                     ",
"                     .    .                                     ",
"                      .   .                                     ",
"                      .  .                                      ",
"                  ...... ......................                 ",
"                 ..XXXX..XXXXXXXXXXXXXXXXXXXXXX.                ",
"                ..XXXXXX.XXXXXXXXXXXXXXXXXXXXXXX.               ",
"              ..XXXXXXX...XXXXXXXXXXXXXXXXXXXXXXX.              ",
"             ..XXXXXX.....XXXXXXXXXXXXXXXXXXXXXXXX.             ",
"            .XXXXXX.......XXXXXXXXXXXXXXXXXXXXXXXXX.            ",
"           .XXXXX....... .XXXXXXXXXXXXXXXXXXXXXXXXXX..          ",
"        ............... .XXXXXXXXXXXXXXXXXXXXXXXXXXXX.          ",
"        ................XXXXXXXXXXXXXXXXXXXXXXXXXXXXXX..        ",
"         .. . . . . . ......................XXXXXXXXXXX..       ",
"         X....oooooooo.....                 .XXXXXXXXXXX.       ",
"         ..oo.o.oooo....oo..                 ..XXXXXXXXX.       ",
"         X.o.oo..ooooooooooo....              ..XXXXXXXX.       ",
"         ..oo.oooooo.ooooooooo..               .XXXXXXXX.       ",
"         X.ooooooooo....oooo..                  .XXXXXXX.       ",
"         ..ooooooooooooo....                    .XXXXXXX.       ",
"         ..ooooo.........                       .XXXXXXX.       ",
"         .oooooooo.                             .........       ",
"         .oooooooo.           OOOOO    OO   OO                  ",
"         .oooooooo.          OO   OO  OOO    O                  ",
"         .oooooooo.          O       OO OO  OO                  ",
"         .oo.ooooo..         O       OOOOO   O                  ",
"        ..oo.ooo.oo.          O OOO OO O OO OO O O              ",
"        .ooo.ooo.oo..          OO  OOO    O  OOOOO              ",
"       ..ooo.ooo.ooo.                                           ",
"       .ooo..ooo.oooo.                                          ",
"       .ooo.oooo.oooo.                                          ",
"       .ooo..ooo.ooooo.          OOOOOO    OO   OO   O  OOOOO   ",
"      ...oo.oooo.ooooo..         OO   O   OOO   OOO  O  O   OO  ",
"     .   .o.ooooo.ooooo.         OOOOO    O OO  OOO  O  O   O   ",
"    ...   ...oooo.oooooo.        OO   O  OOOOOO OO O O  O   OO  ",
"    .     ..oooo..ooooo..        OOO OO  O O OO OO OOO  OO OO   ",
"    .     .o.ooo.oooooo. .       OOOOO   O    OOOO   O  OOOO    ",
"    ..   . .oooo.ooooo..  .                      .......        ",
"      ...o. .ooo.ooooo..  .                     .XXXXXXX.       ",
"       .ooo.ooooo.oooo.   .                     .XXXXXXX.       ",
"       .ooo.ooooo..ooo.   .                     .XXXXXXX.       ",
"       .ooo.oo.ooo.ooo.   .                     .XXXXXXX.       ",
"       ..ooo.o.o..oooo.   .                    ..XXXXXXX.       ",
"        .oooo....o .oo..  .                   .XXXXXXXXX.       ",
"        .ooooooooo. .oo.   ....................XXXXXXXXX.       ",
"         .ooooooooo. .o....XXXXXXXXXXXXXXXXXXXXXXXXXXXX..       ",
"         .oooooooooo. .o..XXXXXXXXXXXXXXXXXXXXXXXXXXXX..        ",
"         .ooooooooooo. ..XXXXXXXXXXXXXXXXXXXXXXXXXXXX..         ",
"          ..ooooooo.oo....XXXXXXXXXXXXXXXXXXXXXXXXXX..          ",
"           ..oooooo.o..X. .XXXXXXXXXXXXXXXXXXXXXXXXX.           ",
"            .ooooooo..XXX. .XXXXXXXXXXXXXXXXXXXXXXX.            ",
"            .ooooooo.XXXXX...XXXXXXXXXXXXXXXXXXXXX.             ",
"            .ooooooo.XXXXXXX..XXXXXXXXXXXXXXXXXXX.              ",
"            .ooooooo.o.o.o.XX.XXXXXXXXXXXXXXXXXX..              ",
"             .ooooooooooooo.....................                ",
"             ..............    ..                               ",
"                                 .                              ",
"                                                                ",
"                                                                "};
