#define tb_gen_width 16
#define tb_gen_height 16
static unsigned char tb_gen_bits[] = {
   0x00, 0x00, 0x00, 0x00, 0x04, 0x78, 0x0e, 0x60, 0x15, 0x50, 0x04, 0x48,
   0x00, 0x04, 0x04, 0x01, 0x8a, 0x02, 0x04, 0x01, 0x00, 0x00, 0x00, 0x10,
   0x04, 0x21, 0x8a, 0x7a, 0x04, 0x21, 0x00, 0x10};
