#define tb_lasso_width 16
#define tb_lasso_height 16
static unsigned char tb_lasso_bits[] = {
   0x00, 0x00, 0x18, 0x00, 0x64, 0x00, 0x84, 0x00, 0x82, 0x00, 0x42, 0x00,
   0x42, 0x0e, 0x82, 0x11, 0x02, 0x20, 0x02, 0x20, 0x04, 0x20, 0x04, 0x20,
   0x18, 0x10, 0xe0, 0x0f, 0x00, 0x00, 0x00, 0x00};
