#define tb_lbl_f_width 16
#define tb_lbl_f_height 16
static unsigned char tb_lbl_f_bits[] = {
   0x10, 0x08, 0x08, 0x10, 0xfc, 0x3f, 0x08, 0x10, 0x10, 0x08, 0x44, 0x44,
   0x6a, 0x6a, 0x6e, 0x6e, 0x4a, 0x4a, 0x00, 0x00, 0x80, 0x03, 0x40, 0x04,
   0x40, 0x04, 0x40, 0x04, 0x80, 0x03, 0x00, 0x00};
