#define tb_left_width 16
#define tb_left_height 16
static unsigned char tb_left_bits[] = {
   0x00, 0x00, 0x00, 0x00, 0x80, 0x01, 0x40, 0x01, 0x20, 0x01, 0x10, 0x7f,
   0x08, 0x40, 0x04, 0x40, 0x02, 0x40, 0x04, 0x40, 0x08, 0x40, 0x10, 0x7f,
   0x20, 0x01, 0x40, 0x01, 0x80, 0x01, 0x00, 0x00};
