#define tb_play_width 16
#define tb_play_height 16
static unsigned char tb_play_bits[] = {
   0x00, 0x00, 0x00, 0x00, 0xec, 0x01, 0xec, 0x03, 0xec, 0x07, 0xec, 0x0f,
   0xec, 0x1f, 0xec, 0x3f, 0xec, 0x1f, 0xec, 0x0f, 0xec, 0x07, 0xec, 0x03,
   0xec, 0x01, 0x00, 0x00, 0x00, 0x00, 0x00, 0x00};
