#define tb_ref_width 16
#define tb_ref_height 16
static unsigned char tb_ref_bits[] = {
   0x80, 0x00, 0x00, 0x00, 0x80, 0x00, 0x00, 0x00, 0x80, 0x00, 0x00, 0x00,
   0xf2, 0x27, 0x0a, 0x28, 0x86, 0x30, 0x1e, 0x3c, 0x80, 0x00, 0x00, 0x00,
   0x80, 0x00, 0x00, 0x00, 0x80, 0x00, 0x00, 0x00};
