#define tb_sym0_width 16
#define tb_sym0_height 16
static unsigned char tb_sym0_bits[] = {
   0x00, 0x00, 0x00, 0x00, 0x00, 0x00, 0xe0, 0x03, 0x18, 0x0c, 0x08, 0x08,
   0x04, 0x10, 0x04, 0x10, 0x04, 0x10, 0x04, 0x10, 0x04, 0x10, 0x08, 0x08,
   0x18, 0x0c, 0xe0, 0x03, 0x00, 0x00, 0x00, 0x00};
