#define tb_sym1_width 16
#define tb_sym1_height 16
static unsigned char tb_sym1_bits[] = {
   0x00, 0x00, 0x00, 0x00, 0x00, 0x00, 0xe0, 0x03, 0xf8, 0x0f, 0xf8, 0x0f,
   0xfc, 0x1f, 0xfc, 0x1f, 0xfc, 0x1f, 0xfc, 0x1f, 0xfc, 0x1f, 0xf8, 0x0f,
   0xf8, 0x0f, 0xe0, 0x03, 0x00, 0x00, 0x00, 0x00};
