#define tb_sym5_width 16
#define tb_sym5_height 16
static unsigned char tb_sym5_bits[] = {
   0x00, 0x00, 0x00, 0x00, 0x02, 0x00, 0xe4, 0x03, 0xf8, 0x0f, 0xf8, 0x0f,
   0xfc, 0x1f, 0xfc, 0x1f, 0xfc, 0x1f, 0xfc, 0x1f, 0xfc, 0x1f, 0xf8, 0x0f,
   0xf8, 0x0f, 0xe0, 0x13, 0x00, 0x20, 0x00, 0x00};
