#define tb_shr_width 16
#define tb_shr_height 16
static unsigned char tb_shr_bits[] = {
   0x00, 0x00, 0x80, 0x00, 0x00, 0x01, 0xf4, 0x13, 0x00, 0x09, 0x84, 0x04,
   0x00, 0x02, 0x04, 0x01, 0x80, 0x00, 0x44, 0x00, 0x20, 0x00, 0x14, 0x00,
   0x08, 0x00, 0x04, 0x00, 0x00, 0x00, 0x00, 0x00};
