#define tb_curve_width 16
#define tb_curve_height 16
static unsigned char tb_curve_bits[] = {
   0x00, 0x00,
   0x00, 0x00,
   0xC4, 0x1F,
   0x3E, 0x20,
   0x04, 0x40,
   0x00, 0x40,
   0x00, 0x40,
   0x00, 0x30,
   0xC0, 0x0F,
   0x30, 0x00,
   0x08, 0x00,
   0x04, 0x20,
   0x04, 0x70,
   0x08, 0x2E,
   0xF0, 0x01,
   0x00, 0x00};
