#define tb_curve_width 16
#define tb_curve_height 16
static unsigned char tb_curve_bits[] = {
   0x00, 0x00,
   0x00, 0x00,
   0x30, 0x00,
   0xF8, 0x0F,
   0xF8, 0x1F,
   0x30, 0x18,
   0x00, 0x18,
   0xF0, 0x1F,
   0xF8, 0x0F,
   0x18, 0x00,
   0x18, 0x0C,
   0xF8, 0x1F,
   0xF0, 0x1F,
   0x00, 0x0C,
   0x00, 0x00,
   0x00, 0x00};
