#define tb_lbl_l_width 16
#define tb_lbl_l_height 16
static unsigned char tb_lbl_l_bits[] = {
   0x00, 0x00, 0x00, 0x00, 0x64, 0x00, 0x8a, 0x00, 0x4a, 0x00, 0x8e, 0x00,
   0x6a, 0x00, 0x00, 0x00, 0x80, 0x03, 0x40, 0x04, 0x40, 0x04, 0x40, 0x04,
   0x80, 0x03, 0x00, 0x00, 0x00, 0x00, 0x00, 0x00};
