#define tb_line_width 16
#define tb_line_height 16
static unsigned char tb_line_bits[] = {
   0x00, 0x00, 0x00, 0x00, 0x00, 0x18, 0x00, 0x24, 0x00, 0x24, 0x00, 0x18,
   0x80, 0x01, 0x40, 0x02, 0x40, 0x02, 0x80, 0x01, 0x18, 0x00, 0x24, 0x00,
   0x24, 0x00, 0x18, 0x00, 0x00, 0x00, 0x00, 0x00};
