#define tb_lbl_show_width 16
#define tb_lbl_show_height 16
static unsigned char tb_lbl_show_bits[] = {
   0x00, 0x00, 
   0xfe, 0xff, 
   0x02, 0x80, 
   0xfa, 0xbd, 
   0xfa, 0xbd, 
   0x9a, 0xb1,
   0x9a, 0xb1, 
   0xfa, 0xbd, 
   0xfa, 0xbd, 
   0x9a, 0xb1, 
   0x9a, 0xb1, 
   0x9a, 0xbd,
   0x9a, 0xbd, 
   0x02, 0x80, 
   0xfe, 0xff, 
   0x00, 0x00
  };
