#define tb_lbl_vis_toggle_width 16
#define tb_lbl_vis_toggle_height 16
static unsigned char tb_lbl_vis_toggle_bits[] = {
   0x00, 0x01, 
   0xff, 0x01, 
   0x01, 0x01, 
   0x01, 0x01, 
   0x01, 0x01, 
   0x01, 0x01,
   0x01, 0x01, 
   0xff, 0x01, 
   0x80, 0x03, 
   0x40, 0x04, 
   0x40, 0x04, 
   0x40, 0x04,
   0x80, 0x03, 
   0x00, 0x00, 
   0x00, 0x00, 
   0x00, 0x00
  };
