#define tb_lbl_hide_width 16
#define tb_lbl_hide_height 16
static unsigned char tb_lbl_hide_bits[] = {
   0x01, 0x00, 
   0x02, 0x00, 
   0x04, 0x00, 
   0xfc, 0x3f,
   0x14, 0x20, 
   0x64, 0x26, 
   0xe4, 0x28, 
   0xa4, 0x24, 
   0xe4, 0x29,
   0xa4, 0x26, 
   0x04, 0x24, 
   0x04, 0x28,
   0xfc, 0x3f, 
   0x00, 0x20,
   0x00, 0x40, 
   0x00, 0x80
 };
