#define tb_poly_width 16
#define tb_poly_height 16
static unsigned char tb_poly_bits[] = {
   0x00, 0x00, 0x00, 0x06, 0x00, 0x06, 0x08, 0x09, 0x38, 0x09, 0xc8, 0x08,
   0x08, 0x08, 0x08, 0x10, 0x04, 0x10, 0x04, 0x10, 0x04, 0x10, 0x04, 0x20,
   0x04, 0x3f, 0xfc, 0x00, 0x00, 0x00, 0x00, 0x00};
