#define tb_shape_cross_width 16
#define tb_shape_cross_height 16
static unsigned char tb_shape_cross_bits[] = {
   0x00, 0x00, 0x80, 0x00, 0x40, 0x01, 0x80, 0x00, 0x00, 0x00, 0x80, 0x00, 0x84, 0x10, 0xfa, 0x2f, 0x84, 0x10, 0xa0, 0x02, 0xc0, 0x01, 0x80, 0x00, 0x00, 0x00, 0x80, 0x00, 0x40, 0x01, 0x80, 0x00 };

