#define tb_shape_x_width 16
#define tb_shape_x_height 16
static unsigned char tb_shape_x_bits[] = {
   0x00, 0x00, 0x04, 0x20, 0x0a, 0x50, 0x04, 0x30, 0x10, 0x08, 0x20, 0x04, 0x40, 0x02, 0x80, 0x01, 0x80, 0x01, 0x40, 0x02, 0x20, 0x14, 0x10, 0x18, 0x04, 0x3c, 0x0a, 0x50, 0x04, 0x20, 0x00, 0x00 };

