#define tb_shape_draw_width 16
#define tb_shape_draw_height 16
static unsigned char tb_shape_draw_bits[] = {
   0x00, 0x00, 0x00, 0x08, 0x00, 0x34, 0x00, 0xf8, 0x00, 0x30, 0x00, 0x50, 0xb8, 0x51, 0x44, 0x41, 0xc2, 0x41, 0x02, 0x62, 0x02, 0x1c, 0x04, 0x00, 0x04, 0x00, 0x0a, 0x00, 0x04, 0x00, 0x00, 0x00 };
