#define tb_shape_box_width 16
#define tb_shape_box_height 16
static unsigned char tb_shape_box_bits[] = {
   0x00, 0x00, 0x40, 0x08, 0xbc, 0x37, 0x44, 0x28, 0x0a, 0x20, 0x04, 0x20, 0x04, 0x50, 0x04, 0x20, 0x04, 0x20, 0x0a, 0x20, 0x04, 0x20, 0x04, 0x50, 0x14, 0x22, 0xec, 0x3d, 0x10, 0x02, 0x00, 0x00 };

