#define oski_width 86
#define oski_height 93
static unsigned char oski_bits[] = {
  0xff, 0xff, 0xff, 0xff, 0xff, 0xff, 0xff, 0xff, 0xff, 0xff, 0x3f, 0x01,
  0x00, 0x00, 0x00, 0x00, 0x00, 0x00, 0x00, 0x00, 0x00, 0x20, 0x01, 0x00,
  0x00, 0x80, 0x01, 0x00, 0x00, 0x00, 0x00, 0x00, 0x20, 0x01, 0x00, 0x00,
  0x60, 0x02, 0x00, 0x00, 0x00, 0x00, 0x00, 0x20, 0x01, 0x00, 0x00, 0x20,
  0x02, 0x00, 0x00, 0x00, 0x00, 0x00, 0x20, 0x01, 0x00, 0x00, 0x30, 0x02,
  0x00, 0x00, 0x00, 0x00, 0x00, 0x20, 0x01, 0x00, 0x00, 0x10, 0x04, 0x00,
  0x00, 0x00, 0x00, 0x00, 0x20, 0x01, 0x00, 0x00, 0x10, 0x04, 0x00, 0x00,
  0x00, 0x00, 0x00, 0x20, 0x01, 0x00, 0x00, 0x10, 0x04, 0x00, 0x00, 0x00,
  0x00, 0x00, 0x20, 0x01, 0x00, 0x00, 0x10, 0x04, 0x00, 0x00, 0x00, 0x00,
  0x00, 0x20, 0x01, 0x00, 0x00, 0x10, 0x04, 0x00, 0x00, 0x00, 0x00, 0x00,
  0x20, 0x01, 0x00, 0x00, 0x20, 0x06, 0x00, 0x00, 0x00, 0x00, 0x00, 0x20,
  0x01, 0x00, 0x00, 0x7f, 0x02, 0x00, 0x00, 0x00, 0x00, 0x00, 0x20, 0x01,
  0x00, 0x80, 0xff, 0xff, 0xff, 0xff, 0x3f, 0x00, 0x00, 0x20, 0x01, 0x00,
  0xc0, 0xc1, 0x01, 0x00, 0x00, 0x40, 0x00, 0x00, 0x20, 0x01, 0x00, 0xe0,
  0x80, 0x01, 0x00, 0x00, 0x80, 0x00, 0x00, 0x20, 0x01, 0x00, 0x30, 0x80,
  0x01, 0x00, 0x00, 0x00, 0x01, 0x00, 0x20, 0x01, 0x00, 0x1c, 0xc0, 0x03,
  0x00, 0x00, 0x00, 0x02, 0x00, 0x20, 0x01, 0x00, 0x0e, 0xf8, 0x03, 0x00,
  0x00, 0x00, 0x04, 0x00, 0x20, 0x01, 0x00, 0x07, 0xfe, 0x03, 0x00, 0x00,
  0x00, 0x08, 0x00, 0x20, 0x01, 0x80, 0x01, 0xff, 0x02, 0x00, 0x00, 0x00,
  0x30, 0x00, 0x20, 0x01, 0xc0, 0xc0, 0x7f, 0x01, 0x00, 0x00, 0x00, 0x60,
  0x00, 0x20, 0x01, 0xf8, 0xff, 0xff, 0x00, 0x00, 0x00, 0x00, 0xc0, 0x00,
  0x20, 0x01, 0xfc, 0xff, 0x3f, 0x00, 0x00, 0x00, 0x00, 0x80, 0x01, 0x20,
  0x01, 0xfc, 0xff, 0x7f, 0x00, 0x00, 0x00, 0x00, 0x00, 0x03, 0x20, 0x01,
  0xf8, 0x07, 0xc0, 0xff, 0xff, 0xff, 0x03, 0x00, 0x06, 0x20, 0x01, 0x38,
  0xf8, 0xff, 0x01, 0x00, 0x00, 0x06, 0x00, 0x0c, 0x20, 0x01, 0xe8, 0x03,
  0xe0, 0x07, 0x00, 0x00, 0x0c, 0x00, 0x0c, 0x20, 0x01, 0x28, 0x1e, 0xf0,
  0x0f, 0x00, 0x00, 0x18, 0x00, 0x0c, 0x20, 0x01, 0x28, 0x09, 0x7c, 0x3c,
  0x00, 0x00, 0x30, 0x00, 0x0c, 0x20, 0x01, 0x28, 0x39, 0x00, 0xe0, 0x03,
  0x00, 0x60, 0x00, 0x0c, 0x20, 0x01, 0x28, 0x06, 0x00, 0x00, 0x07, 0x00,
  0xc0, 0x00, 0x0c, 0x20, 0x01, 0x28, 0x00, 0x0c, 0x00, 0x03, 0x00, 0x80,
  0x01, 0x0c, 0x20, 0x01, 0x28, 0x00, 0x7c, 0xe0, 0x00, 0x00, 0x80, 0x01,
  0x0c, 0x20, 0x01, 0x28, 0x00, 0x80, 0x1f, 0x00, 0x00, 0x80, 0x01, 0x0c,
  0x20, 0x01, 0x28, 0xe0, 0xfc, 0x01, 0x00, 0x00, 0x80, 0x01, 0x0c, 0x20,
  0x01, 0x38, 0x80, 0x3f, 0x00, 0x00, 0x00, 0x80, 0x01, 0x0c, 0x20, 0x01,
  0x18, 0x80, 0x00, 0x00, 0x00, 0x00, 0x80, 0xff, 0x0f, 0x20, 0x01, 0x18,
  0x80, 0x00, 0x00, 0x1e, 0x18, 0x18, 0x00, 0x00, 0x20, 0x01, 0x18, 0x80,
  0x01, 0x80, 0x7f, 0x38, 0x18, 0x00, 0x00, 0x20, 0x01, 0x18, 0x80, 0x01,
  0x80, 0x61, 0x3c, 0x18, 0x00, 0x00, 0x20, 0x01, 0x18, 0x00, 0x01, 0xc0,
  0x00, 0x7c, 0x18, 0x00, 0x00, 0x20, 0x01, 0x08, 0x00, 0x01, 0xc0, 0x00,
  0x66, 0x18, 0x00, 0x00, 0x20, 0x01, 0x88, 0x00, 0x03, 0xc0, 0x00, 0xfe,
  0x18, 0x00, 0x00, 0x20, 0x01, 0x8c, 0x00, 0x03, 0x80, 0x71, 0xff, 0x18,
  0x00, 0x00, 0x20, 0x01, 0x84, 0x20, 0x02, 0x80, 0x3f, 0xc3, 0xf9, 0x03,
  0x00, 0x20, 0x01, 0x84, 0x20, 0x06, 0x00, 0x8e, 0x83, 0xf9, 0x03, 0x00,
  0x20, 0x01, 0x84, 0x20, 0x04, 0x00, 0x00, 0x00, 0x00, 0x00, 0x00, 0x20,
  0x01, 0x86, 0x20, 0x0c, 0x00, 0x00, 0x00, 0x00, 0x00, 0x00, 0x20, 0x01,
  0xc2, 0x20, 0x08, 0x00, 0x00, 0x00, 0x00, 0x00, 0x00, 0x20, 0x01, 0xc2,
  0x20, 0x18, 0x00, 0x00, 0x00, 0x00, 0x00, 0x00, 0x20, 0x01, 0xc2, 0x20,
  0x10, 0x00, 0xf0, 0x03, 0x06, 0xc3, 0xfc, 0x20, 0x01, 0xc3, 0x20, 0x20,
  0x00, 0xf0, 0x0f, 0x0e, 0xc7, 0xfc, 0x21, 0x01, 0x43, 0x20, 0x60, 0x00,
  0x30, 0x0c, 0x0f, 0xc7, 0x0c, 0x23, 0x81, 0x4f, 0x60, 0x40, 0x00, 0xf0,
  0x07, 0x1f, 0xcf, 0x0c, 0x23, 0x41, 0x58, 0x40, 0x80, 0x00, 0xf0, 0x87,
  0x19, 0xdb, 0x0c, 0x23, 0xe1, 0xd1, 0x40, 0x80, 0x01, 0x30, 0x8c, 0x3f,
  0xd3, 0x0c, 0x23, 0xa1, 0xd0, 0x40, 0xc0, 0x01, 0x30, 0xcc, 0x3f, 0xf3,
  0x0c, 0x23, 0x21, 0xa0, 0x60, 0x40, 0x03, 0xf0, 0xcf, 0x60, 0xe3, 0xfc,
  0x21, 0x21, 0xa0, 0x20, 0x40, 0x02, 0xf0, 0xc3, 0x60, 0xc3, 0xfc, 0x20,
  0x21, 0xa0, 0x20, 0x40, 0x04, 0x00, 0x00, 0x00, 0x00, 0x00, 0x20, 0xc1,
  0xd8, 0x20, 0x60, 0x04, 0x00, 0x00, 0x00, 0xff, 0x0f, 0x20, 0x81, 0xa7,
  0x20, 0x60, 0x04, 0x00, 0x00, 0x00, 0x01, 0x08, 0x20, 0x01, 0xc2, 0x20,
  0x20, 0x04, 0x00, 0x00, 0x00, 0x01, 0x08, 0x20, 0x01, 0x42, 0x40, 0x20,
  0x0c, 0x00, 0x00, 0x00, 0x01, 0x08, 0x20, 0x01, 0x42, 0xc0, 0x20, 0x0c,
  0x00, 0x00, 0x00, 0x01, 0x08, 0x20, 0x01, 0x42, 0x84, 0x20, 0x0c, 0x00,
  0x00, 0x00, 0x01, 0x08, 0x20, 0x01, 0x82, 0xc4, 0x20, 0x0c, 0x00, 0x00,
  0x80, 0x01, 0x08, 0x20, 0x01, 0x86, 0x65, 0x20, 0x0c, 0x00, 0x00, 0xc0,
  0x00, 0x08, 0x20, 0x01, 0x04, 0xbf, 0x61, 0x04, 0x00, 0x00, 0x60, 0x00,
  0x08, 0x20, 0x01, 0x04, 0x40, 0x43, 0x04, 0x00, 0x00, 0x30, 0x00, 0x08,
  0x20, 0x01, 0x04, 0x80, 0x44, 0xfc, 0xff, 0xff, 0x1f, 0x00, 0x0c, 0x20,
  0x01, 0x08, 0x00, 0xcb, 0x06, 0x00, 0x00, 0x00, 0x00, 0x06, 0x20, 0x01,
  0x08, 0x00, 0x94, 0x07, 0x00, 0x00, 0x00, 0x00, 0x03, 0x20, 0x01, 0x10,
  0x00, 0x28, 0x03, 0x00, 0x00, 0x00, 0x00, 0x01, 0x20, 0x01, 0x10, 0x00,
  0xd0, 0x03, 0x00, 0x00, 0x00, 0x80, 0x01, 0x20, 0x01, 0x20, 0x00, 0xa0,
  0x01, 0x00, 0x00, 0x00, 0xc0, 0x00, 0x20, 0x01, 0x40, 0x00, 0xc2, 0x03,
  0x00, 0x00, 0x00, 0x60, 0x00, 0x20, 0x01, 0xc0, 0x01, 0x3a, 0x05, 0x00,
  0x00, 0x00, 0x30, 0x00, 0x20, 0x01, 0x00, 0x01, 0x1e, 0x0a, 0x00, 0x00,
  0x00, 0x18, 0x00, 0x20, 0x01, 0x00, 0x01, 0x04, 0x14, 0x00, 0x00, 0x00,
  0x0c, 0x00, 0x20, 0x01, 0x00, 0x01, 0x04, 0x38, 0x00, 0x00, 0x00, 0x06,
  0x00, 0x20, 0x01, 0x00, 0x01, 0x04, 0x60, 0x00, 0x00, 0x00, 0x02, 0x00,
  0x20, 0x01, 0x00, 0x01, 0xfc, 0xc0, 0x00, 0x00, 0x00, 0x03, 0x00, 0x20,
  0x01, 0x00, 0x01, 0x80, 0x8f, 0x01, 0x00, 0x80, 0x01, 0x00, 0x20, 0x01,
  0x00, 0x03, 0x00, 0xf8, 0xff, 0xff, 0xff, 0x00, 0x00, 0x20, 0x01, 0x00,
  0xfe, 0xff, 0x1f, 0x06, 0x00, 0x00, 0x00, 0x00, 0x20, 0x01, 0x00, 0x00,
  0x00, 0x00, 0x0c, 0x00, 0x00, 0x00, 0x00, 0x20, 0x01, 0x00, 0x00, 0x00,
  0x00, 0x10, 0x00, 0x00, 0x00, 0x00, 0x20, 0x01, 0x00, 0x00, 0x00, 0x00,
  0x00, 0x00, 0x00, 0x00, 0x00, 0x20, 0x01, 0x00, 0x00, 0x00, 0x00, 0x00,
  0x00, 0x00, 0x00, 0x00, 0x20, 0x01, 0x00, 0x00, 0x00, 0x00, 0x00, 0x00,
  0x00, 0x00, 0x00, 0x20, 0xff, 0xff, 0xff, 0xff, 0xff, 0xff, 0xff, 0xff,
  0xff, 0xff, 0x3f, };
