#define tb_bug_width 16
#define tb_bug_height 16
static unsigned char tb_bug_bits[] = {
   0x20, 0x08, 0x40, 0x04, 0x80, 0x03, 0x44, 0x44, 0x44, 0x44, 0xc4, 0x47,
   0x28, 0x28, 0x10, 0x10, 0x10, 0x10, 0x1e, 0xf0, 0x10, 0x10, 0x28, 0x28,
   0x28, 0x28, 0xc4, 0x47, 0x04, 0x40, 0x00, 0x00};

