#define tb_box_width 16
#define tb_box_height 16
static unsigned char tb_box_bits[] = {
   0x00, 0x00, 0x00, 0x00, 0xfc, 0x1f, 0x04, 0x10, 0x04, 0x10, 0x04, 0x10,
   0x04, 0x10, 0x04, 0x10, 0x04, 0x10, 0x04, 0x10, 0x04, 0x10, 0x04, 0x10,
   0x04, 0x10, 0xfc, 0x1f, 0x00, 0x00, 0x00, 0x00};
