#define tb_lbl_vis_toggle_width 16
#define tb_lbl_vis_toggle_height 16
static unsigned char tb_lbl_vis_toggle_bits[] = {
   0x01, 0x00,
   0x02, 0x64, 
   0x04, 0x8a, 
   0xc8, 0xff, 
   0x10, 0x8e,
   0x20, 0x6a, 
   0x40, 0x00,
   0x80, 0x00,
   0x00, 0x01, 
   0x00, 0x02,
   0x64, 0x04, 
   0x8a, 0x08, 
   0x4a, 0x10, 
   0x8e, 0x20,
   0x6a, 0x40,
   0x00, 0x80
};
