#define tb_lbl_show_width 16
#define tb_lbl_show_height 16
static unsigned char tb_lbl_show_bits[] = {
   0x00, 0x00, 
   0x00, 0x00, 
   0x00, 0x00, 
   0xfc, 0x3f,
   0x04, 0x20, 
   0x44, 0x26, 
   0xa4, 0x28, 
   0xa4, 0x24, 
   0xe4, 0x28,
   0xa4, 0x26, 
   0x04, 0x20, 
   0x04, 0x20,
   0xfc, 0x3f, 
   0x00, 0x00,
   0x00, 0x00, 
   0x00, 0x00
 };
