#define tb_line_width 16
#define tb_line_height 16
static unsigned char tb_line_bits[] = {
   0x00, 0x00, 0x00, 0x20, 0x00, 0x50, 0x00, 0x20, 0x00, 0x00, 0x00, 0x00, 0x00, 0x01, 0x80, 0x02, 0xe0, 0x01, 0xc0, 0x00, 0xa0, 0x00, 0x10, 0x00, 0x04, 0x00, 0x0a, 0x00, 0x04, 0x00, 0x00, 0x00 };

