#define tb_mv_width 16
#define tb_mv_height 16
static unsigned char tb_mv_bits[] = {
   0x00, 0x00, 0x00, 0x20, 0x00, 0x50, 0x00, 0x20, 0x00, 0x0f, 0x00, 0x0c,
   0x00, 0x0a, 0x00, 0x09, 0x80, 0x00, 0x40, 0x00, 0x20, 0x00, 0x08, 0x00,
   0x14, 0x00, 0x08, 0x00, 0x00, 0x00, 0x00, 0x00};
