#define tb_nshet_width 16
#define tb_nshet_height 16
static unsigned char tb_nshet_bits[] = {
   0x00, 0x00, 0x00, 0x00, 0x1c, 0x18, 0x3c, 0x18, 0x7c, 0x18, 0xfc, 0x18,
   0xfc, 0x19, 0xfc, 0x1b, 0xfc, 0x19, 0xfc, 0x18, 0x7c, 0x18, 0x3c, 0x18,
   0x1c, 0x18, 0x00, 0x00, 0x00, 0x00, 0x00, 0x00};
