#define tb_paths_width 16
#define tb_paths_height 16
static unsigned char tb_paths_bits[] = {
    0x00, 0x00,
    0x18, 0x00,
    0x24, 0x00,
    0x42, 0x00,
    0x42, 0x00,
    0x24, 0x00,
    0x18, 0x00,
    0x00, 0x00,
    0x10, 0x18,
    0x10, 0x3c,
    0x10, 0x7e,
    0xF0, 0x7e,
    0x00, 0x3c,
    0x00, 0x18,
    0x00, 0x00,
    0x00, 0x00,
};
