#define tb_pbeat_width 16
#define tb_pbeat_height 16
static unsigned char tb_pbeat_bits[] = {
   0x00, 0x00, 0x00, 0x00, 0x80, 0x31, 0xc0, 0x18, 0x60, 0x0c, 0x30, 0x06,
   0x18, 0x03, 0x8c, 0x01, 0x18, 0x03, 0x30, 0x06, 0x60, 0x0c, 0xc0, 0x18,
   0x80, 0x31, 0x00, 0x00, 0x00, 0x00, 0x00, 0x00};
