#define tb_pshet_width 16
#define tb_pshet_height 16
static unsigned char tb_pshet_bits[] = {
   0x00, 0x00, 0x00, 0x00, 0x18, 0x38, 0x18, 0x3c, 0x18, 0x3e, 0x18, 0x3f,
   0x98, 0x3f, 0xd8, 0x3f, 0x98, 0x3f, 0x18, 0x3f, 0x18, 0x3e, 0x18, 0x3c,
   0x18, 0x38, 0x00, 0x00, 0x00, 0x00, 0x00, 0x00};
