#define tb_right_width 16
#define tb_right_height 16
static unsigned char tb_right_bits[] = {
   0x00, 0x00, 0x00, 0x00, 0x80, 0x01, 0x80, 0x02, 0x80, 0x04, 0xfe, 0x08,
   0x02, 0x10, 0x02, 0x20, 0x02, 0x40, 0x02, 0x20, 0x02, 0x10, 0xfe, 0x08,
   0x80, 0x04, 0x80, 0x02, 0x80, 0x01, 0x00, 0x00};
