#define tb_rot_width 16
#define tb_rot_height 16
static unsigned char tb_rot_bits[] = {
   0x00, 0x00, 0xc0, 0x07, 0x20, 0x08, 0x10, 0x10, 0x08, 0x20, 0x04, 0x40,
   0x04, 0x40, 0x04, 0x40, 0x04, 0x40, 0x04, 0x40, 0x08, 0x24, 0x10, 0x14,
   0x20, 0x0c, 0x40, 0x3c, 0x00, 0x00, 0x00, 0x00};
