#define tb_sym2_width 16
#define tb_sym2_height 16
static unsigned char tb_sym2_bits[] = {
   0x00, 0x00, 0x00, 0x00, 0x02, 0x00, 0xe4, 0x03, 0x18, 0x0c, 0x18, 0x08,
   0x24, 0x10, 0x44, 0x10, 0x84, 0x10, 0x04, 0x11, 0x04, 0x12, 0x08, 0x0c,
   0x18, 0x0c, 0xe0, 0x13, 0x00, 0x20, 0x00, 0x00};
