#define tb_siz_width 16
#define tb_siz_height 16
static unsigned char tb_siz_bits[] = {
   0x00, 0x00, 0x00, 0x00, 0xfc, 0x3f, 0x04, 0x20, 0x04, 0x2f, 0x04, 0x2c,
   0x04, 0x2a, 0x54, 0x29, 0x04, 0x20, 0x04, 0x21, 0x04, 0x20, 0x04, 0x21,
   0x04, 0x20, 0xfc, 0x3f, 0x00, 0x00, 0x00, 0x00};
