#define tb_shape_ellipse_width 16
#define tb_shape_ellipse_height 16
static unsigned char tb_shape_ellipse_bits[] = {
   0x00, 0x01, 0xc0, 0x06, 0x3c, 0x09, 0x30, 0x30, 0x28, 0x50, 0x24, 0x60, 0x04, 0x40, 0x0a, 0x40, 0x04, 0xa0, 0x04, 0x40, 0x08, 0x20, 0x30, 0x18, 0x50, 0x14, 0xe0, 0x0f, 0x00, 0x00, 0x00, 0x00 };

