#define tb_swap_width 16
#define tb_swap_height 16
static unsigned char tb_swap_bits[] = {
   0x80, 0x00,
   0x00, 0x01,
   0x00, 0x22,
   0xc0, 0x57,
   0x20, 0x22,
   0x10, 0x01, 
   0x88, 0x10,
   0x08, 0x10,
   0x08, 0x10,
   0x08, 0x11,
   0x80, 0x08, 
   0x44, 0x04,
   0xea, 0x03, 
   0x44, 0x00,
   0x80, 0x00, 
   0x00, 0x01
};
