#define tb_sym3_width 16
#define tb_sym3_height 16
static unsigned char tb_sym3_bits[] = {
   0x00, 0x00, 0x00, 0x00, 0x00, 0x20, 0xe0, 0x13, 0x18, 0x0c, 0x08, 0x0c,
   0x04, 0x12, 0x04, 0x11, 0x84, 0x10, 0x44, 0x10, 0x24, 0x10, 0x18, 0x08,
   0x18, 0x0c, 0xe4, 0x03, 0x02, 0x00, 0x00, 0x00};
