#define tb_sym4_width 16
#define tb_sym4_height 16
static unsigned char tb_sym4_bits[] = {
   0x00, 0x00, 0x00, 0x00, 0x02, 0x20, 0xe4, 0x13, 0x18, 0x0c, 0x18, 0x0c,
   0x24, 0x12, 0x44, 0x11, 0x84, 0x10, 0x44, 0x11, 0x24, 0x12, 0x18, 0x0c,
   0x18, 0x0c, 0xe4, 0x13, 0x02, 0x20, 0x00, 0x00};
