#define tb_shape_line_width 16
#define tb_shape_line_height 16
static unsigned char tb_shape_line_bits[] = {
   0x00, 0x00, 0x00, 0x20, 0x00, 0x50, 0x00, 0x3c, 0x00, 0x18, 0x00, 0x14, 0x00, 0x02, 0x80, 0x01, 0x40, 0x01, 0xc0, 0x00, 0x20, 0x00, 0x10, 0x00, 0x04, 0x00, 0x0a, 0x00, 0x04, 0x00, 0x00, 0x00 };
