#define tb_sym7_width 16
#define tb_sym7_height 16
static unsigned char tb_sym7_bits[] = {
   0x00, 0x00, 0x00, 0x00, 0x02, 0x20, 0xe4, 0x13, 0xf8, 0x0f, 0xf8, 0x0f,
   0xfc, 0x1f, 0xfc, 0x1f, 0xfc, 0x1f, 0xfc, 0x1f, 0xfc, 0x1f, 0xf8, 0x0f,
   0xf8, 0x0f, 0xe4, 0x13, 0x02, 0x20, 0x00, 0x00};
